<?xml version="1.0" standalone="no"?>
<!DOCTYPE svg PUBLIC "-//W3C//DTD SVG 20010904//EN"
 "http://www.w3.org/TR/2001/REC-SVG-20010904/DTD/svg10.dtd">
<svg version="1.0" xmlns="http://www.w3.org/2000/svg"
 width="400.000000pt" height="400.000000pt" viewBox="0 0 400.000000 400.000000"
 preserveAspectRatio="xMidYMid meet">
<g transform="translate(0.000000,400.000000) scale(0.100000,-0.100000)"
fill="#000000" stroke="none">
<path d="M1865 3633 c-450 -28 -848 -233 -1149 -593 -274 -326 -403 -741 -366
-1170 35 -397 177 -710 454 -998 344 -358 814 -535 1306 -492 351 31 641 149
900 366 454 380 658 911 579 1504 -60 449 -336 871 -742 1134 -218 142 -454
221 -732 245 -116 10 -144 11 -250 4z m305 -184 c173 -21 323 -68 480 -150
133 -70 247 -158 375 -291 263 -272 387 -561 402 -933 11 -290 -35 -510 -158
-745 -70 -133 -158 -247 -291 -375 -303 -294 -638 -419 -1073 -402 -372 15
-661 139 -933 402 -328 316 -467 663 -449 1120 11 283 82 503 236 735 70 106
249 292 361 376 189 141 428 236 675 267 66 9 296 6 375 -4z"/>
<path d="M1905 3088 c-18 -16 -95 -183 -256 -556 -126 -294 -229 -538 -227
-543 3 -10 1468 -862 1473 -857 9 8 -837 1945 -856 1961 -31 25 -101 23 -134
-5z"/>
<path d="M1376 1897 c-133 -301 -328 -759 -324 -762 7 -7 877 500 870 507 -4
4 -123 74 -265 157 l-258 150 -23 -52z"/>
</g>
</svg>
